<svg xmlns="http://www.w3.org/2000/svg" viewBox="0 0 101.4 98.98"><g id="Livello_2" data-name="Livello 2"><g id="Livello_1-2" data-name="Livello 1"><path d="M8.85,77.42c5.28-.4,10.36-.69,15.43-1.18,16.39-1.61,32.68-3.8,48.12-10a36.62,36.62,0,0,0,11.47-6.94c6.25-5.81,6.23-13.92-.07-19.67-5-4.6-11.22-7.07-17.57-9.13a155.94,155.94,0,0,0-30.52-6.36C26.85,23.11,18,22.32,9,21.42c.2-.31.48-.82.82-1.27C18.19,9.32,29.12,2.66,42.69.62,65-2.73,85.71,7.68,96,27.22c9.58,18.11,6,41.63-8.33,56.21C79.25,92,69.12,97.33,57.2,98.61,37.59,100.7,21.51,94,9.36,78.26A8.56,8.56,0,0,1,8.85,77.42Z"/><path d="M0,49.75A48.59,48.59,0,0,1,6.2,25.56a2.1,2.1,0,0,1,2.56-1.32c13.58,2.14,26.81,5.4,39.14,11.7a30.93,30.93,0,0,1,10,7.4c3.44,4.08,3.47,8.23,0,12.31-3.65,4.3-8.51,6.88-13.52,9.16-10.76,4.9-22.12,7.77-33.75,9.62C7,75,7,75,5.36,71.8A46.51,46.51,0,0,1,0,49.75Z"/></g></g></svg>